<?xml version="1.0" standalone="no"?>
<!DOCTYPE svg PUBLIC "-//W3C//DTD SVG 20010904//EN"
 "http://www.w3.org/TR/2001/REC-SVG-20010904/DTD/svg10.dtd">
<svg version="1.0" xmlns="http://www.w3.org/2000/svg"
 width="2000.000000pt" height="1080.000000pt" viewBox="0 0 2000.000000 1080.000000"
 preserveAspectRatio="xMidYMid meet">
<metadata>
Created by potrace 1.15, written by Peter Selinger 2001-2017
</metadata>
<g transform="translate(0.000000,1080.000000) scale(0.100000,-0.100000)"
fill="#000000" stroke="none">
<path d="M9710 8734 c-914 -132 -1622 -841 -1755 -1758 -21 -144 -21 -428 0
-572 34 -232 90 -413 190 -619 203 -419 532 -748 950 -950 301 -146 565 -206
905 -206 340 0 604 60 905 206 418 202 747 531 950 950 144 297 206 567 206
905 0 275 -44 514 -137 750 -279 702 -897 1190 -1642 1294 -139 20 -438 20
-572 0z m498 -125 c602 -65 1149 -419 1458 -946 443 -752 319 -1718 -300
-2336 -466 -465 -1121 -660 -1765 -527 -215 45 -468 150 -651 270 -822 541
-1112 1588 -684 2465 286 588 868 1001 1514 1074 110 12 316 13 428 0z"/>
<path d="M9825 8404 c-472 -51 -918 -303 -1198 -677 -29 -40 -57 -78 -62 -86
-7 -12 31 -13 261 -6 148 4 286 8 308 8 44 1 66 -20 66 -63 0 -48 -29 -62
-149 -73 l-109 -10 310 -926 c171 -509 314 -930 318 -934 8 -9 380 1093 380
1123 0 8 -59 178 -132 376 l-132 361 -105 11 c-90 9 -109 14 -124 33 -37 45 9
116 68 105 65 -12 644 -18 775 -7 125 10 137 9 160 -8 33 -24 38 -71 10 -96
-15 -14 -47 -21 -131 -28 -73 -7 -109 -14 -106 -21 2 -6 131 -389 287 -851
155 -462 294 -873 308 -913 13 -41 28 -70 32 -65 15 15 243 751 277 893 25
105 25 349 0 440 -21 77 -92 225 -176 368 -74 125 -103 205 -104 292 -2 150
109 283 248 297 31 3 54 9 53 13 -6 16 -119 105 -208 165 -176 118 -388 206
-604 251 -97 20 -157 26 -301 28 -99 2 -198 2 -220 0z"/>
<path d="M11508 7373 c3 -117 0 -174 -17 -272 -23 -136 -9 -92 -385 -1179
-136 -393 -246 -716 -243 -718 2 -3 44 22 93 55 243 162 439 382 573 641 210
408 249 890 105 1328 -29 90 -116 292 -126 292 -2 0 -2 -66 0 -147z"/>
<path d="M8386 7288 c-270 -729 -16 -1550 619 -2002 105 -76 245 -153 245
-135 0 19 -812 2239 -820 2239 -3 0 -23 -46 -44 -102z"/>
<path d="M9771 5803 c-140 -406 -254 -744 -255 -752 -1 -16 47 -31 189 -58
126 -24 464 -25 590 -1 84 16 265 64 273 73 6 6 -530 1475 -538 1475 -3 0
-120 -332 -259 -737z"/>
<path d="M2060 4071 l0 -49 68 -7 c37 -3 83 -11 103 -16 93 -24 172 -113 227
-256 22 -57 450 -1366 543 -1661 10 -30 14 -33 47 -30 l36 3 231 697 c127 384
234 700 236 703 3 2 108 -313 235 -700 l229 -705 35 0 35 0 274 823 c150 452
292 863 315 912 76 162 140 209 308 228 l98 10 0 49 0 48 -435 0 -435 0 0 -48
0 -48 88 -11 c157 -18 198 -55 190 -172 -4 -51 -45 -183 -172 -561 -92 -272
-170 -498 -174 -502 -4 -4 -108 296 -230 667 l-223 675 -47 0 -47 0 -229 -682
-230 -681 -113 344 c-200 610 -225 690 -226 749 -2 108 44 146 196 163 l87 11
0 48 0 48 -510 0 -510 0 0 -49z"/>
<path d="M10240 4072 l0 -48 96 -12 c119 -14 169 -40 206 -109 51 -95 53 -120
53 -778 0 -552 -2 -617 -18 -687 -34 -144 -98 -196 -254 -206 l-83 -5 0 -48 0
-49 531 0 530 0 -3 48 -3 47 -76 6 c-130 11 -185 36 -225 104 -40 69 -54 160
-61 413 l-6 232 185 0 c322 0 496 49 640 179 118 107 170 223 171 381 1 161
-45 275 -152 380 -104 102 -227 158 -409 185 -75 12 -212 15 -609 15 l-513 0
0 -48z m1122 -165 c133 -65 209 -221 195 -400 -11 -145 -81 -258 -195 -314
-55 -27 -63 -28 -244 -31 l-188 -4 0 392 0 392 188 -4 c181 -3 189 -4 244 -31z"/>
<path d="M5523 3705 c-344 -62 -613 -284 -715 -590 -20 -61 -23 -89 -23 -220
0 -162 13 -221 72 -339 122 -244 391 -432 683 -477 118 -18 316 -6 423 25 267
79 462 236 577 465 70 140 93 341 56 496 -23 97 -94 237 -160 317 -211 255
-577 384 -913 323z m290 -150 c143 -30 245 -99 325 -219 80 -119 122 -272 122
-441 0 -338 -167 -595 -426 -656 -67 -16 -208 -15 -274 0 -259 62 -424 317
-424 656 0 222 62 393 189 521 129 131 299 179 488 139z"/>
<path d="M15833 3709 c-81 -9 -170 -42 -235 -87 -211 -145 -237 -418 -59 -615
63 -70 131 -112 372 -229 313 -154 379 -213 379 -341 0 -117 -93 -196 -242
-205 -248 -15 -456 150 -514 407 l-16 71 -49 0 -49 0 0 -320 0 -320 48 0 c47
0 47 0 60 43 8 23 23 57 34 74 l20 33 41 -29 c157 -107 345 -146 520 -107 338
76 515 407 360 675 -67 116 -135 164 -446 315 -243 119 -323 171 -350 229 -24
51 -22 117 6 158 49 73 128 104 248 97 96 -6 168 -39 232 -107 56 -60 83 -112
107 -204 l18 -72 51 -3 51 -3 0 276 0 276 -46 -3 c-44 -3 -47 -5 -63 -43 -9
-22 -21 -49 -28 -60 -11 -18 -13 -18 -30 -3 -30 27 -120 68 -181 82 -78 19
-154 24 -239 15z"/>
<path d="M17225 3710 c-165 -19 -316 -114 -380 -240 -76 -151 -38 -344 94
-478 69 -71 124 -104 331 -201 85 -40 185 -90 221 -111 194 -114 243 -262 123
-377 -59 -57 -129 -77 -238 -70 -233 15 -414 178 -458 413 l-13 64 -52 0 -53
0 0 -320 0 -320 49 0 c48 0 50 1 61 38 7 20 23 54 36 74 l24 38 49 -35 c184
-133 446 -153 651 -50 181 91 277 250 268 444 -5 116 -36 181 -132 277 -68 68
-82 77 -340 205 -336 167 -396 216 -396 322 0 52 49 120 106 148 42 20 64 24
149 24 95 0 103 -2 163 -34 100 -55 164 -146 198 -285 l17 -66 53 0 54 0 0
275 0 275 -48 0 -47 0 -27 -61 -27 -61 -33 22 c-107 71 -263 106 -403 90z"/>
<path d="M6682 3613 l3 -48 80 -6 c114 -8 156 -33 192 -114 16 -36 18 -84 21
-504 3 -494 -2 -574 -41 -633 -31 -46 -92 -74 -182 -83 l-75 -7 0 -44 0 -44
460 0 460 0 0 44 0 44 -62 7 c-124 13 -165 37 -201 115 -19 39 -22 69 -25 233
l-4 187 35 0 c34 0 43 -9 287 -315 l252 -315 736 0 c416 0 770 5 812 10 198
26 389 106 503 211 114 104 191 244 217 395 16 93 8 300 -15 374 -72 232 -235
393 -479 475 -168 56 -181 58 -738 62 l-518 4 0 -50 0 -51 58 0 c125 0 191
-44 217 -145 22 -87 22 -953 0 -1039 -27 -102 -62 -131 -183 -147 -66 -9 -91
-8 -143 5 -160 40 -265 118 -494 364 l-164 177 67 21 c201 61 326 187 354 356
36 221 -107 407 -369 480 -74 21 -101 22 -571 26 l-493 3 3 -48z m919 -118
c106 -36 169 -128 177 -257 6 -98 -16 -172 -69 -232 -59 -67 -116 -86 -270
-93 l-129 -6 0 301 0 302 123 0 c85 0 138 -5 168 -15z m1813 -5 c103 -26 167
-62 230 -131 57 -61 95 -133 123 -231 23 -81 25 -363 4 -448 -34 -138 -110
-254 -207 -316 -94 -60 -171 -79 -326 -79 -123 0 -139 2 -165 21 -49 37 -51
63 -52 657 l-1 547 158 0 c125 0 175 -4 236 -20z"/>
<path d="M12020 3611 l0 -51 63 0 c122 0 183 -35 214 -123 16 -48 18 -94 18
-542 0 -444 -2 -495 -18 -541 -30 -85 -79 -117 -204 -129 l-73 -7 0 -44 0 -44
460 0 460 0 0 44 0 43 -85 11 c-175 23 -205 78 -205 369 l0 163 34 0 c32 0 44
-14 284 -315 l252 -315 944 0 945 0 5 33 c5 29 26 351 26 391 0 12 -10 16 -38
16 l-38 0 -23 -80 c-32 -110 -65 -152 -138 -181 -50 -19 -82 -23 -243 -27
-211 -5 -257 3 -306 52 -48 48 -56 89 -61 319 l-5 207 63 0 c95 -1 191 -15
234 -36 51 -24 74 -77 75 -166 l0 -68 50 0 50 0 0 345 0 345 -50 0 -50 0 0
-67 c-1 -90 -25 -143 -75 -167 -44 -21 -135 -36 -227 -36 l-68 0 0 250 0 250
198 0 c353 0 409 -26 463 -212 l22 -78 39 0 38 0 0 43 c-1 30 -26 374 -30 395
0 1 -304 2 -675 2 l-675 0 0 -50 0 -50 58 0 c127 0 192 -44 217 -147 14 -53
15 -134 13 -545 -3 -529 -3 -525 -64 -589 -74 -77 -253 -59 -402 41 -87 58
-141 109 -309 290 l-153 165 67 21 c247 75 383 259 353 475 -25 174 -155 302
-367 361 -74 21 -101 22 -570 26 l-493 3 0 -50z m921 -116 c64 -22 113 -67
146 -133 25 -51 28 -68 28 -152 -1 -79 -5 -102 -24 -140 -62 -120 -151 -160
-358 -160 l-83 0 0 300 0 300 123 0 c85 0 138 -5 168 -15z"/>
</g>
</svg>
